<svg aria-hidden="true" style="position:absolute;width:0;height:0;overflow:hidden" xmlns="http://www.w3.org/2000/svg"><defs>
<symbol id="delivery" width="24" height="24" viewBox="0 0 24 24" fill="none" stroke="currentColor" stroke-width="2" stroke-linecap="round" stroke-linejoin="round" class="lucide lucide-package-check"><path d="m16 16 2 2 4-4"/><path d="M21 10V8a2 2 0 0 0-1-1.73l-7-4a2 2 0 0 0-2 0l-7 4A2 2 0 0 0 3 8v8a2 2 0 0 0 1 1.73l7 4a2 2 0 0 0 2 0l2-1.14"/><path d="m7.5 4.27 9 5.15"/><polyline points="3.29 7 12 12 20.71 7"/><line x1="12" x2="12" y1="22" y2="12"/></symbol>

<symbol id="return" width="48" height="48" viewBox="0 0 48 48">
<path d="M0 0h48v48H0z" fill="none"/>
<g id="Shopicon">
	<path d="M10,22v2c0,7.72,6.28,14,14,14s14-6.28,14-14s-6.28-14-14-14h-4V4l-8,8l8,8v-6h4c5.514,0,10,4.486,10,10s-4.486,10-10,10 s-10-4.486-10-10v-2H10z"/>
</g>
</symbol>


<symbol id="return2" width="24" height="24" viewBox="0 0 24 24" fill="#000000"><g id="SVGRepo_bgCarrier" stroke-width="0"></g><g id="SVGRepo_tracerCarrier" stroke-linecap="round" stroke-linejoin="round"></g><g id="SVGRepo_iconCarrier"></path> <g id="Shopicon"> <path d="M10,22v2c0,7.72,6.28,14,14,14s14-6.28,14-14s-6.28-14-14-14h-4V4l-8,8l8,8v-6h4c5.514,0,10,4.486,10,10s-4.486,10-10,10 s-10-4.486-10-10v-2H10z"></path> </g> </g></symbol></defs></svg>

