<svg aria-hidden="true" style="position:absolute;width:0;height:0;overflow:hidden"
    xmlns="http://www.w3.org/2000/svg">
    <defs>
        <symbol id="icon-favicon" viewBox="0 0 40 32">
            <svg width="24"
                height="24" viewBox="0 0 24 24" stroke-width="1" stroke="grey" fill="none"
                stroke-linecap="round" stroke-linejoin="round">
                <path stroke="none" d="M0 0h24v24H0z" fill="none" />
                <path d="M10 12a2 2 0 1 0 4 0a2 2 0 0 0 -4 0" />
                <path
                    d="M14.071 17.764a8.989 8.989 0 0 1 -2.071 .236c-3.6 0 -6.6 -2 -9 -6c2.4 -4 5.4 -6 9 -6c3.346 0 6.173 1.727 8.482 5.182" />
                <path d="M19 22v.01" />
                <path d="M19 19a2.003 2.003 0 0 0 .914 -3.782a1.98 1.98 0 0 0 -2.414 .483" />
            </svg>
        </symbol>
        <symbol id="shoping-card" viewBox="0 0 32 32">
            <svg width="28" height="28" viewBox="0 0 28 28"
                fill="none"
                stroke="currentColor" stroke-width="2" stroke-linecap="round"
                stroke-linejoin="round"
                class="lucide lucide-shopping-cart">
                <circle cx="8" cy="21" r="1" />
                <circle cx="19" cy="21" r="1" />
                <path
                    d="M2.05 2.05h2l2.66 12.42a2 2 0 0 0 2 1.58h9.78a2 2 0 0 0 1.95-1.57l1.65-7.43H5.12" />
            </svg>
        </symbol>
        <symbol id="menu-mobile" viewBox="0 0 24 24">
            <svg width="24" height="24" viewBox="0 0 24 24"
                fill="none" stroke="currentColor" stroke-width="2" stroke-linecap="round"
                stroke-linejoin="round" class="lucide lucide-align-justify">
                <line x1="3" x2="21" y1="6" y2="6" />
                <line x1="3" x2="21" y1="12" y2="12" />
                <line x1="3" x2="21" y1="18" y2="18" />
            </svg>
        </symbol>
    </defs>
</svg>