<svg aria-hidden="true" style="position:absolute;width:0;height:0;overflow:hidden"
    xmlns="http://www.w3.org/2000/svg">
    <defs>
        <symbol id="icon-favicon" viewBox="0 0 40 32">
            <svg width="24"
                height="24" viewBox="0 0 24 24" stroke-width="1" stroke="grey" fill="none"
                stroke-linecap="round" stroke-linejoin="round">
                <path stroke="none" d="M0 0h24v24H0z" fill="none" />
                <path d="M10 12a2 2 0 1 0 4 0a2 2 0 0 0 -4 0" />
                <path
                    d="M14.071 17.764a8.989 8.989 0 0 1 -2.071 .236c-3.6 0 -6.6 -2 -9 -6c2.4 -4 5.4 -6 9 -6c3.346 0 6.173 1.727 8.482 5.182" />
                <path d="M19 22v.01" />
                <path d="M19 19a2.003 2.003 0 0 0 .914 -3.782a1.98 1.98 0 0 0 -2.414 .483" />
            </svg>
        </symbol>
        <symbol id="shoping-card" viewBox="0 0 32 32">
            <svg width="28" height="28" viewBox="0 0 28 28"
                fill="none"
                stroke="currentColor" stroke-width="2" stroke-linecap="round"
                stroke-linejoin="round"
                class="lucide lucide-shopping-cart">
                <circle cx="8" cy="21" r="1" />
                <circle cx="19" cy="21" r="1" />
                <path
                    d="M2.05 2.05h2l2.66 12.42a2 2 0 0 0 2 1.58h9.78a2 2 0 0 0 1.95-1.57l1.65-7.43H5.12" />
            </svg>
        </symbol>
        <symbol id="menu-mobile" viewBox="0 0 24 24">
            <svg width="24" height="24" viewBox="0 0 24 24"
                fill="none" stroke="currentColor" stroke-width="2" stroke-linecap="round"
                stroke-linejoin="round" class="lucide lucide-align-justify">
                <line x1="3" x2="21" y1="6" y2="6" />
                <line x1="3" x2="21" y1="12" y2="12" />
                <line x1="3" x2="21" y1="18" y2="18" />
            </svg>
        </symbol>
        <symbol id="trash" viewBox="0 0 24 24">
            <svg width="24" height="24" viewBox="0 0 24 24" fill="none" stroke="currentColor"
                stroke-width="1.25" stroke-linecap="round" stroke-linejoin="round"
                class="lucide lucide-trash-2">
                <path d="M3 6h18" />
                <path d="M19 6v14c0 1-1 2-2 2H7c-1 0-2-1-2-2V6" />
                <path d="M8 6V4c0-1 1-2 2-2h4c1 0 2 1 2 2v2" />
                <line x1="10" x2="10" y1="11" y2="17" />
                <line x1="14" x2="14" y1="11" y2="17" />
            </svg>
        </symbol>
        <symbol id="star" viewBox="0 0 24 24">
            <svg width="24" height="24" viewBox="0 0 24 24"
                stroke="currentColor" stroke-width="1.5" stroke-linecap="round"
                stroke-linejoin="round" class="lucide lucide-star">
                <polygon
                    points="12 2 15.09 8.26 22 9.27 17 14.14 18.18 21.02 12 17.77 5.82 21.02 7 14.14 2 9.27 8.91 8.26 12 2" />
            </svg>
        </symbol>
        <symbol id="phone" viewBox="0 0 24 24">
            <svg width="18" height="18" viewBox="0 0 24 24" fill="none" stroke="currentColor"
                stroke-width="1.5" stroke-linecap="round" stroke-linejoin="round"
                class="lucide lucide-phone-call">
                <path
                    d="M22 16.92v3a2 2 0 0 1-2.18 2 19.79 19.79 0 0 1-8.63-3.07 19.5 19.5 0 0 1-6-6 19.79 19.79 0 0 1-3.07-8.67A2 2 0 0 1 4.11 2h3a2 2 0 0 1 2 1.72 12.84 12.84 0 0 0 .7 2.81 2 2 0 0 1-.45 2.11L8.09 9.91a16 16 0 0 0 6 6l1.27-1.27a2 2 0 0 1 2.11-.45 12.84 12.84 0 0 0 2.81.7A2 2 0 0 1 22 16.92z" />
                <path d="M14.05 2a9 9 0 0 1 8 7.94" />
                <path d="M14.05 6A5 5 0 0 1 18 10" />
            </svg>
        </symbol>
        <symbol id="home" viewBox="0 0 24 24">
            <svg width="18" height="18" viewBox="0 0 24 24" fill="none" stroke="currentColor"
                stroke-width="1.5" stroke-linecap="round" stroke-linejoin="round"
                class="lucide lucide-home">
                <path d="m3 9 9-7 9 7v11a2 2 0 0 1-2 2H5a2 2 0 0 1-2-2z" />
                <polyline points="9 22 9 12 15 12 15 22" />
            </svg>
        </symbol>
        <symbol id="post" viewBox="0 0 24 24">
            <svg width="18" height="18" viewBox="0 0 24 24" fill="none" stroke="currentColor"
                stroke-width="1.5" stroke-linecap="round" stroke-linejoin="round"
                class="lucide lucide-mail-open">
                <path
                    d="M21.2 8.4c.5.38.8.97.8 1.6v10a2 2 0 0 1-2 2H4a2 2 0 0 1-2-2V10a2 2 0 0 1 .8-1.6l8-6a2 2 0 0 1 2.4 0l8 6Z" />
                <path d="m22 10-8.97 5.7a1.94 1.94 0 0 1-2.06 0L2 10" />
            </svg>
        </symbol>
        <symbol id="github" viewBox="0 0 24 24">
            <svg width="24" height="24" viewBox="0 0 24 24" fill="none" stroke="currentColor"
                stroke-width="1.5" stroke-linecap="round" stroke-linejoin="round"
                class="lucide lucide-github">
                <path
                    d="M15 22v-4a4.8 4.8 0 0 0-1-3.5c3 0 6-2 6-5.5.08-1.25-.27-2.48-1-3.5.28-1.15.28-2.35 0-3.5 0 0-1 0-3 1.5-2.64-.5-5.36-.5-8 0C6 2 5 2 5 2c-.3 1.15-.3 2.35 0 3.5A5.403 5.403 0 0 0 4 9c0 3.5 3 5.5 6 5.5-.39.49-.68 1.05-.85 1.65-.17.6-.22 1.23-.15 1.85v4" />
                <path d="M9 18c-4.51 2-5-2-7-2" />
            </svg>
        </symbol>
        <symbol id="linkedin" viewBox="0 0 24 24">
            <svg xmlns="http://www.w3.org/2000/svg" width="24" height="24" viewBox="0 0 24 24"
                fill="none" stroke="currentColor" stroke-width="1.5" stroke-linecap="round"
                stroke-linejoin="round" class="lucide lucide-linkedin">
                <path
                    d="M16 8a6 6 0 0 1 6 6v7h-4v-7a2 2 0 0 0-2-2 2 2 0 0 0-2 2v7h-4v-7a6 6 0 0 1 6-6z" />
                <rect width="4" height="12" x="2" y="9" />
                <circle cx="4" cy="4" r="2" />
            </svg>
        </symbol>
        <symbol id="facebook" viewBox="0 0 24 24">
            <svg width="24" height="24" viewBox="0 0 24 24" fill="none" stroke="currentColor"
                stroke-width="1.5" stroke-linecap="round" stroke-linejoin="round"
                class="lucide lucide-facebook">
                <path d="M18 2h-3a5 5 0 0 0-5 5v3H7v4h3v8h4v-8h3l1-4h-4V7a1 1 0 0 1 1-1h3z" />
            </svg>
        </symbol>
        <symbol id="instagram" viewBox="0 0 24 24">
            <svg width="24" height="24" viewBox="0 0 24 24" fill="none" stroke="currentColor"
                stroke-width="2" stroke-linecap="round" stroke-linejoin="round"
                class="lucide lucide-instagram">
                <rect width="20" height="20" x="2" y="2" rx="5" ry="5" />
                <path d="M16 11.37A4 4 0 1 1 12.63 8 4 4 0 0 1 16 11.37z" />
                <line x1="17.5" x2="17.51" y1="6.5" y2="6.5" />
            </svg>
        </symbol>
    </defs>
</svg>